<svg width="696" height="248" viewBox="0 0 696 248" fill="none" xmlns="http://www.w3.org/2000/svg">
<path d="M386.173 91.94C381.503 91.94 377.408 90.9521 373.89 88.9776C370.371 86.9287 367.621 84.1127 365.637 80.5295C363.718 76.872 362.759 72.6302 362.759 67.8019V33.7912C362.759 28.8909 363.718 24.648 365.637 21.0636C367.621 17.4804 370.371 14.701 373.89 12.7253C377.408 10.6776 381.503 9.6543 386.173 9.6543C390.907 9.6543 395.001 10.6776 398.456 12.7253C401.974 14.701 404.693 17.4804 406.612 21.0636C408.595 24.648 409.587 28.8909 409.587 33.7912H395.193C395.193 30.5727 394.393 28.1226 392.794 26.4396C391.259 24.7577 389.052 23.9162 386.173 23.9162C383.294 23.9162 381.055 24.7577 379.456 26.4396C377.92 28.1226 377.153 30.5727 377.153 33.7912V67.8019C377.153 70.9473 377.92 73.3974 379.456 75.1536C381.055 76.8354 383.294 77.6769 386.173 77.6769C389.052 77.6769 391.259 76.8354 392.794 75.1536C394.393 73.3974 395.193 70.9473 395.193 67.8019H409.587C409.587 72.6302 408.595 76.872 406.612 80.5295C404.693 84.1127 401.974 86.9287 398.456 88.9776C395.001 90.9521 390.907 91.94 386.173 91.94ZM451.964 90.8424C448.253 90.8424 444.991 89.9643 442.176 88.2093C439.361 86.3811 437.154 83.8578 435.555 80.6393C434.019 77.4208 433.252 73.6901 433.252 69.4483V25.5626H416.939V10.7508H447.646V69.4483C447.646 71.4229 448.158 73.0316 449.181 74.2755C450.269 75.4463 451.676 76.0305 453.403 76.0305H468.757V90.8424H451.964ZM500.962 91.94C496.292 91.94 492.198 90.9521 488.679 88.9776C485.225 86.9287 482.538 84.1127 480.618 80.5295C478.763 76.872 477.836 72.6302 477.836 67.8019V53.54C477.836 48.7117 478.763 44.5065 480.618 40.9222C482.538 37.2658 485.225 34.4498 488.679 32.4741C492.198 30.4264 496.292 29.4019 500.962 29.4019C505.632 29.4019 509.662 30.4264 513.053 32.4741C516.508 34.4498 519.162 37.2658 521.018 40.9222C522.937 44.5065 523.896 48.7117 523.896 53.54V64.5114H491.558V67.8019C491.558 71.6058 492.358 74.495 493.957 76.4695C495.556 78.372 497.955 79.3222 501.154 79.3222C503.393 79.3222 505.184 78.8831 506.528 78.0062C507.935 77.1281 508.863 75.9207 509.311 74.3852H523.417C522.265 79.6514 519.642 83.8944 515.548 87.1117C511.518 90.3302 506.656 91.94 500.962 91.94ZM510.174 56.0633V53.3205C510.174 49.5898 509.406 46.7372 507.871 44.7626C506.4 42.7881 504.097 41.8003 500.962 41.8003C497.827 41.8003 495.46 42.8247 493.861 44.8724C492.326 46.9201 491.558 49.8093 491.558 53.54V55.1853L511.134 54.9657L510.174 56.0633ZM551.591 91.94C546.282 91.94 542.059 90.2936 538.925 87.0019C535.854 83.7114 534.319 79.249 534.319 73.6169C534.319 67.5458 536.142 62.9016 539.788 59.6831C543.499 56.3926 548.809 54.7462 555.718 54.7462H566.657V50.2483C566.657 47.9079 565.921 46.042 564.45 44.6529C563.043 43.2626 561.123 42.5686 558.692 42.5686C556.453 42.5686 554.598 43.1528 553.127 44.3236C551.655 45.4944 550.76 47.103 550.44 49.1507H536.526C537.101 43.0796 539.404 38.2891 543.435 34.7779C547.529 31.1947 552.775 29.4019 559.172 29.4019C565.889 29.4019 571.199 31.3044 575.102 35.1072C579.068 38.8379 581.051 43.8845 581.051 50.2483V90.8424H567.137V80.9686H564.834L567.233 77.1281C567.233 81.6626 565.793 85.2835 562.915 87.9898C560.1 90.6229 556.325 91.94 551.591 91.94ZM556.965 79.871C559.78 79.871 562.083 79.0295 563.874 77.3476C565.729 75.5926 566.657 73.3242 566.657 70.5448V64.0724H556.006C553.83 64.0724 552.071 64.803 550.728 66.2664C549.384 67.6556 548.713 69.5215 548.713 71.8619C548.713 74.3487 549.448 76.3232 550.92 77.7867C552.391 79.1758 554.406 79.871 556.965 79.871ZM593.488 90.8424V30.4995H607.403V42.0198H611.625L607.403 45.8591C607.403 40.7392 608.682 36.717 611.241 33.7912C613.8 30.8654 617.255 29.4019 621.605 29.4019C626.723 29.4019 630.817 31.4508 633.888 35.5462C637.022 39.6428 638.59 45.0919 638.59 51.8936V90.8424H624.196V53.54C624.196 50.3947 623.46 47.9811 621.989 46.2981C620.581 44.5431 618.566 43.665 615.943 43.665C613.384 43.665 611.401 44.5431 609.994 46.2981C608.586 47.9811 607.882 50.3947 607.882 53.54V90.8424H593.488ZM364.486 236.046L357.961 155.954H369.764L373.314 209.495C373.378 210.519 373.442 211.982 373.506 213.883C373.57 215.712 373.634 217.651 373.698 219.698C373.826 221.673 373.89 223.466 373.89 225.074C374.018 223.466 374.146 221.673 374.274 219.698C374.466 217.651 374.658 215.712 374.85 213.883C375.041 211.982 375.169 210.519 375.233 209.495L380.415 155.954H391.355L396.345 209.495C396.473 210.519 396.6 211.982 396.728 213.883C396.92 215.712 397.112 217.651 397.304 219.698C397.56 221.673 397.752 223.466 397.88 225.074C397.944 223.466 398.008 221.673 398.072 219.698C398.136 217.651 398.2 215.712 398.264 213.883C398.328 211.982 398.392 210.519 398.456 209.495L401.718 155.954H413.617L406.612 236.046H391.643L386.941 182.834C386.813 181.591 386.685 179.981 386.557 178.007C386.429 175.959 386.301 173.838 386.173 171.643C386.045 169.449 385.917 167.511 385.789 165.829C385.725 167.511 385.629 169.449 385.501 171.643C385.373 173.838 385.245 175.959 385.117 178.007C384.989 179.981 384.861 181.591 384.733 182.834L379.552 236.046H364.486ZM421.257 236.046V221.124H439.489V190.515H423.656V175.703H452.924V221.124H468.277V236.046H421.257ZM445.247 166.157C442.624 166.157 440.513 165.39 438.913 163.853C437.378 162.318 436.61 160.234 436.61 157.6C436.61 154.967 437.378 152.882 438.913 151.346C440.513 149.81 442.624 149.043 445.247 149.043C447.87 149.043 449.949 149.81 451.484 151.346C453.083 152.882 453.883 154.967 453.883 157.6C453.883 160.234 453.083 162.318 451.484 163.853C449.949 165.39 447.87 166.157 445.247 166.157ZM478.795 236.046V221.783L504.896 189.966H479.755V175.703H521.881V189.966L495.78 221.783H522.937V236.046H478.795ZM551.591 237.143C546.282 237.143 542.059 235.497 538.925 232.205C535.854 228.915 534.319 224.452 534.319 218.82C534.319 212.749 536.142 208.105 539.788 204.886C543.499 201.596 548.809 199.95 555.718 199.95H566.657V195.452C566.657 193.111 565.921 191.245 564.45 189.856C563.043 188.466 561.123 187.772 558.692 187.772C556.453 187.772 554.598 188.356 553.127 189.527C551.655 190.698 550.76 192.306 550.44 194.354H536.526C537.101 188.283 539.404 183.492 543.435 179.981C547.529 176.398 552.775 174.605 559.172 174.605C565.889 174.605 571.199 176.508 575.102 180.311C579.068 184.041 581.051 189.088 581.051 195.452V236.046H567.137V226.172H564.834L567.233 222.331C567.233 226.866 565.793 230.487 562.915 233.193C560.1 235.826 556.325 237.143 551.591 237.143ZM556.965 225.074C559.78 225.074 562.083 224.233 563.874 222.551C565.729 220.796 566.657 218.528 566.657 215.748V209.276H556.006C553.83 209.276 552.071 210.006 550.728 211.47C549.384 212.859 548.713 214.725 548.713 217.065C548.713 219.552 549.448 221.527 550.92 222.99C552.391 224.379 554.406 225.074 556.965 225.074ZM595.024 236.046V175.703H608.458V187.223H612.105L607.978 194.244C607.978 187.735 609.29 182.834 611.913 179.543C614.536 176.252 618.374 174.605 623.428 174.605C629.25 174.605 633.76 176.618 636.958 180.64C640.221 184.663 641.852 190.332 641.852 197.646V202.583H626.499V198.743C626.499 195.452 625.699 192.892 624.1 191.062C622.564 189.234 620.485 188.32 617.862 188.32C615.111 188.32 613 189.234 611.529 191.062C610.121 192.892 609.418 195.452 609.418 198.743V236.046H595.024ZM668.012 237.143C662.702 237.143 658.448 235.021 655.249 230.78C652.05 226.537 650.451 220.796 650.451 213.554V198.195C650.451 191.026 652.05 185.321 655.249 181.079C658.448 176.764 662.702 174.605 668.012 174.605C672.362 174.605 675.785 176.069 678.28 178.995C680.775 181.847 682.022 185.869 682.022 191.062L678.663 187.223H682.022L681.542 172.411V155.954H695.936V236.046H682.022V224.526H678.663L682.022 220.686C682.022 225.879 680.775 229.938 678.28 232.864C675.785 235.716 672.362 237.143 668.012 237.143ZM673.194 222.88C675.817 222.88 677.864 222.039 679.335 220.357C680.807 218.601 681.542 216.151 681.542 213.005V198.743C681.542 195.598 680.807 193.184 679.335 191.501C677.864 189.746 675.817 188.868 673.194 188.868C670.507 188.868 668.428 189.746 666.956 191.501C665.549 193.184 664.845 195.598 664.845 198.743V213.005C664.845 216.151 665.549 218.601 666.956 220.357C668.428 222.039 670.507 222.88 673.194 222.88Z" fill="white"/>
<path fill-rule="evenodd" clip-rule="evenodd" d="M74.832 32.4494L137.576 0.519531L193.49 86.4593L226.95 199.354L326.257 247.529L0 247.501L84.919 205.518L130.862 126.633L157.414 114.35L136.455 110.256L131.16 43.454L138.552 33.0805L74.832 32.4494ZM98.764 203.085L134.737 142.804L120.044 199.02L98.764 203.085Z" fill="url(#paint0_linear_1076_10763)"/>
<defs>
<linearGradient id="paint0_linear_1076_10763" x1="96.5" y1="-39.4971" x2="160.471" y2="244.217" gradientUnits="userSpaceOnUse">
<stop stop-color="#E04265"/>
<stop offset="0.79" stop-color="#7F53FF"/>
</linearGradient>
</defs>
</svg>
